<svg xmlns="http://www.w3.org/2000/svg" width="200" height="200" viewBox="0 0 64 64" role="img" aria-label="Redes Seguras">
  <defs>
    <linearGradient id="g" x1="0" x2="1" y1="0" y2="1">
      <stop offset="0%" stop-color="#3a7afe"/>
      <stop offset="100%" stop-color="#00e395"/>
    </linearGradient>
    <linearGradient id="g2" x1="0" x2="1" y1="1" y2="0">
      <stop offset="0%" stop-color="#3a7afe"/>
      <stop offset="100%" stop-color="#ff7a59"/>
    </linearGradient>
  </defs>
  <path d="M32 4c10 4 18 6 24 8v12c0 14-10 24-24 30C18 48 8 38 8 24V12c6-2 14-4 24-8z" fill="url(#g)" stroke="#2b7afe" stroke-width="1.5" opacity="0.98"/>
  <g fill="#0b1020" opacity="0.92">
    <path d="M21 26h11.5c3.5 0 5.5-1.7 5.5-4.4 0-2.7-2-4.6-5.5-4.6H21v3.2h10.7c1.6 0 2.4.6 2.4 1.5 0 .9-.8 1.5-2.4 1.5H21v2.8z"/>
    <path d="M43.2 26c-3.3 0-5.8 2-5.8 4.8 0 1.8 1 3 2.8 3.9l3 .1c1.7 0 2.8.6 2.8 1.6 0 1-.9 1.6-2.7 1.6H31.5v3.1h11.5c3.6 0 5.9-1.9 5.9-4.7 0-2-1.2-3.4-3.3-4.2l-3-.1c-1.8 0-2.9-.7-2.9-1.8 0-1.1 1.1-1.8 2.9-1.8h6.8V26h-6.2z"/>
  </g>
  <ellipse cx="32" cy="14" rx="16" ry="6" fill="url(#g2)" opacity="0.18"/>
</svg>
