<svg xmlns="http://www.w3.org/2000/svg" viewBox="0 0 1219 1225">
  <path fill="#25D366" d="M609.6 0C272.8 0 0 272.8 0 609.6c0 107.7 28.2 212.9 81.6 304.8L0 1225l320.8-81.3c89.5 48.9 190.6 74.6 293.4 74.6h.4c336.8 0 609.6-272.8 609.6-609.6C1224.2 272.8 946.4 0 609.6 0z"></path>
  <path fill="#FFF" d="M927.1 877.4c-15.1 42.7-75 81.2-122.8 91.9-32.8 6.9-75.8 12.4-220.4-47-184.9-76.6-304.1-264.1-313.3-276.2-9-12.1-74.7-99.3-74.7-189.2s46.1-134.1 64.6-152.9c15.1-15.3 40-22.3 64.6-22.3 7.8 0 14.7.4 21 1.2 18.4 1.5 27.6 1.9 39.8 31.1 15.1 36.3 51.6 125.7 56.1 134.9 4.5 9.2 7.5 20 1.5 32.1-6 12.1-9 19.7-17.6 30.1-8.1 9.8-17.1 21.8-24.4 29.2-8.1 8.3-16.5 17.3-7.1 34 9.4 16.6 41.9 68.9 90.1 111.4 62 55.1 111.3 72.3 129.2 80.5 13.3 6 29.3 4.6 39.1-6.9 12.4-15.1 27.6-40.1 43.3-64.6 11.1-17.2 25.1-19.3 39.8-13.2 14.8 6.2 93.3 44 109.4 52 16.1 8 26.8 12.1 30.8 18.8 4.1 6.7 4.1 38.9-11 81.6z"></path>
</svg>
